# xmcd
#
# Track frame offsets:
#	150
#	18222
#	43216
#	62265
#	87463
#	108220
#	133338
#	154783
#	178884
#	206223
#	233174
#
# Disc length: 3440 seconds
#
# Revision: 1265064043
# Processed by: cddbd v1.5.2PL0 Copyright (c) Steve Scherf et al.
# Submitted via: EZCDAudioConverter 8.0.2.1
#
DISCID=950d6e0b
DTITLE=Phạm Phương Thảo - Vol.10. Gái Nghệ
DYEAR=2012
DGENRE=Country
TTITLE0=Phạm Phương Thảo - Giận mà thương
TTITLE1=Phạm Phương Thảo - Gái Nghệ
TTITLE2=Phạm Phương Thảo and Xuân Hảo - Em vẫn chờ anh
TTITLE3=Phạm Phương Thảo - Vầng trăng đò đưa
TTITLE4=Phạm Phương Thảo - Gửi em chiếc nón bài thơ
TTITLE5=Phạm Phương Thảo - Câu hát quê hương
TTITLE6=Phạm Phương Thảo - Đôi mắt đò ngang
TTITLE7=Phạm Phương Thảo - Giữa Mạc Tư Khoa nghe câu hò Ví Dặm
TTITLE8=Phạm Phương Thảo - Trở về xứ Nghệ
TTITLE9=Phạm Phương Thảo - Hoàng Thái - Du thuyền trên sông Lam
TTITLE10=Soundtrack - Gái Nghệ
EXTD=
EXTT0=
EXTT1=
EXTT2=
EXTT3=
EXTT4=
EXTT5=
EXTT6=
EXTT7=
EXTT8=
EXTT9=
EXTT10=
PLAYORDER=
